<svg width="103" height="21" viewBox="0 0 103 21" fill="none" xmlns="http://www.w3.org/2000/svg">
<path d="M9.95028 5.6804C9.97396 5.08854 9.80114 4.63163 9.43182 4.30966C9.06724 3.98769 8.51563 3.8267 7.77699 3.8267C7.27509 3.8267 6.83949 3.89773 6.47017 4.03977C6.10085 4.17708 5.80492 4.36884 5.58239 4.61506C5.36458 4.85653 5.22964 5.13589 5.17756 5.45312C5.12547 5.71354 5.14205 5.94081 5.22727 6.13494C5.31724 6.32907 5.45691 6.49716 5.64631 6.6392C5.84044 6.77651 6.07008 6.89725 6.33523 7.00142C6.60038 7.10085 6.8821 7.18608 7.1804 7.2571L8.4304 7.5696C9.04119 7.71165 9.59044 7.90104 10.0781 8.13778C10.5705 8.37453 10.9825 8.66572 11.3139 9.01136C11.6501 9.35701 11.8868 9.7642 12.0241 10.233C12.1615 10.7017 12.1804 11.2391 12.081 11.8452C11.9295 12.7353 11.5767 13.5071 11.0227 14.1605C10.4688 14.8092 9.74195 15.3134 8.84233 15.6733C7.94271 16.0284 6.90104 16.206 5.71733 16.206C4.54309 16.206 3.55114 16.026 2.74148 15.6662C1.93182 15.3063 1.34233 14.7737 0.973011 14.0682C0.608428 13.358 0.499527 12.4796 0.646307 11.4332H3.62216C3.57008 11.9209 3.6411 12.3281 3.83523 12.6548C4.03409 12.9768 4.33002 13.2206 4.72301 13.3864C5.116 13.5473 5.57765 13.6278 6.10795 13.6278C6.63352 13.6278 7.09991 13.5521 7.5071 13.4006C7.91903 13.2491 8.25284 13.0384 8.50852 12.7685C8.7642 12.4986 8.92045 12.1884 8.97727 11.8381C9.03409 11.5114 8.98438 11.2367 8.82812 11.0142C8.67188 10.7917 8.42093 10.6023 8.07528 10.446C7.73438 10.285 7.31061 10.143 6.80398 10.0199L5.28409 9.62216C4.10985 9.32386 3.22206 8.85748 2.62074 8.22301C2.01941 7.58854 1.80398 6.7339 1.97443 5.65909C2.12595 4.77841 2.4929 4.009 3.07528 3.35085C3.66241 2.68797 4.40104 2.17424 5.29119 1.80966C6.18608 1.44034 7.16383 1.25568 8.22443 1.25568C9.30398 1.25568 10.2154 1.44271 10.9588 1.81676C11.7022 2.18608 12.2443 2.70218 12.5852 3.36506C12.9261 4.02794 13.0303 4.79972 12.8977 5.6804H9.95028ZM12.7433 20.0909L15.2575 5.09091H18.2404L17.935 6.9233H18.07C18.2499 6.62973 18.489 6.33144 18.7873 6.02841C19.0903 5.72064 19.4667 5.46496 19.9165 5.26136C20.3664 5.05303 20.8943 4.94886 21.5004 4.94886C22.3005 4.94886 22.9989 5.1572 23.5955 5.57386C24.1921 5.9858 24.623 6.60843 24.8881 7.44176C25.158 8.27036 25.1888 9.30966 24.9805 10.5597C24.7816 11.7765 24.4147 12.804 23.8796 13.642C23.3493 14.4754 22.7125 15.1075 21.9691 15.5384C21.2305 15.9645 20.4469 16.1776 19.6183 16.1776C19.0311 16.1776 18.5482 16.0805 18.1694 15.8864C17.7953 15.6922 17.5041 15.4484 17.2958 15.1548C17.0875 14.8565 16.9407 14.5559 16.8555 14.2528H16.7418L15.7759 20.0909H12.7433ZM17.31 10.5455C17.2058 11.1941 17.2011 11.7599 17.2958 12.2429C17.3952 12.7259 17.5941 13.1023 17.8924 13.3722C18.1907 13.6373 18.5837 13.7699 19.0714 13.7699C19.5638 13.7699 20.0018 13.6349 20.3853 13.3651C20.7688 13.0904 21.0884 12.7116 21.3441 12.2287C21.5998 11.741 21.7821 11.1799 21.891 10.5455C21.9904 9.91572 21.9928 9.36174 21.8981 8.88352C21.8034 8.4053 21.6093 8.03125 21.3157 7.76136C21.0221 7.49148 20.6244 7.35653 20.1225 7.35653C19.6348 7.35653 19.1969 7.48674 18.8086 7.74716C18.4251 8.00758 18.1055 8.37689 17.8498 8.85511C17.5941 9.33333 17.4142 9.89678 17.31 10.5455ZM29.1619 16.206C28.4706 16.206 27.8717 16.0852 27.3651 15.8438C26.8632 15.5975 26.4938 15.233 26.2571 14.75C26.0204 14.267 25.9612 13.6681 26.0795 12.9531C26.1837 12.3471 26.3802 11.8404 26.669 11.4332C26.9626 11.0213 27.3201 10.6899 27.7415 10.4389C28.1629 10.188 28.6293 9.99621 29.1406 9.86364C29.6567 9.73106 30.1894 9.6411 30.7386 9.59375C31.3731 9.52746 31.8892 9.46354 32.2869 9.40199C32.6894 9.34044 32.9901 9.25284 33.1889 9.1392C33.3878 9.02083 33.5085 8.84564 33.5511 8.61364V8.57102C33.6222 8.12595 33.5393 7.7803 33.3026 7.53409C33.0705 7.28314 32.6989 7.15767 32.1875 7.15767C31.6477 7.15767 31.1884 7.27604 30.8097 7.51278C30.4356 7.74953 30.1681 8.05019 30.0071 8.41477L27.2514 8.1875C27.4976 7.52462 27.8693 6.9517 28.3665 6.46875C28.8684 5.98106 29.4721 5.60701 30.1776 5.34659C30.883 5.08144 31.6738 4.94886 32.5497 4.94886C33.1558 4.94886 33.7216 5.01989 34.2472 5.16193C34.7775 5.30398 35.2344 5.52415 35.6179 5.82244C36.0062 6.12074 36.2855 6.50426 36.456 6.97301C36.6312 7.43703 36.6667 7.99337 36.5625 8.64205L35.3338 16H32.4645L32.7202 14.4872H32.6349C32.4029 14.8281 32.1188 15.1288 31.7827 15.3892C31.4465 15.6449 31.0606 15.8461 30.625 15.9929C30.1894 16.1349 29.7017 16.206 29.1619 16.206ZM30.3764 14.1179C30.8168 14.1179 31.2216 14.0303 31.5909 13.8551C31.965 13.6752 32.2727 13.4337 32.5142 13.1307C32.7604 12.8277 32.9167 12.4844 32.983 12.1009L33.1676 10.9432C33.0729 11.0047 32.9356 11.0592 32.7557 11.1065C32.5805 11.1539 32.3887 11.1989 32.1804 11.2415C31.9768 11.2794 31.7708 11.3149 31.5625 11.348C31.3542 11.3764 31.1671 11.4048 31.0014 11.4332C30.6368 11.4853 30.3101 11.5682 30.0213 11.6818C29.7325 11.7955 29.4981 11.9493 29.3182 12.1435C29.1383 12.3329 29.027 12.5696 28.9844 12.8537C28.9181 13.2656 29.0152 13.5805 29.2756 13.7983C29.5407 14.0114 29.9077 14.1179 30.3764 14.1179ZM37.6811 16L39.4993 5.09091H42.4325L42.1129 6.99432H42.2266C42.5391 6.31723 42.9581 5.80587 43.4837 5.46023C44.014 5.10985 44.5845 4.93466 45.1953 4.93466C45.3468 4.93466 45.5054 4.94413 45.6712 4.96307C45.8416 4.97727 45.9931 5.00095 46.1257 5.03409L45.6712 7.72585C45.5386 7.6785 45.3492 7.64062 45.103 7.61222C44.8615 7.57907 44.6319 7.5625 44.4141 7.5625C43.9737 7.5625 43.5642 7.65956 43.1854 7.85369C42.8066 8.04309 42.487 8.30824 42.2266 8.64915C41.9709 8.99006 41.8028 9.38305 41.7223 9.82812L40.7067 16H37.6811ZM50.3001 16.2131C49.1826 16.2131 48.257 15.9858 47.5231 15.5312C46.7892 15.072 46.2731 14.4233 45.9748 13.5852C45.6812 12.7424 45.6315 11.7457 45.8256 10.5952C46.015 9.47301 46.3962 8.48816 46.9691 7.64062C47.5468 6.79309 48.2712 6.13258 49.1424 5.65909C50.0136 5.18561 50.9843 4.94886 52.0543 4.94886C52.774 4.94886 53.4251 5.06487 54.0075 5.29688C54.5946 5.52415 55.0823 5.86979 55.4705 6.33381C55.8588 6.79309 56.1239 7.36837 56.266 8.05966C56.4128 8.75095 56.4104 9.56061 56.2589 10.4886L56.1239 11.3196H46.9194L47.2106 9.4446H53.5742C53.6452 9.009 53.6168 8.62311 53.489 8.28693C53.3612 7.95076 53.1481 7.68797 52.8498 7.49858C52.5515 7.30445 52.1845 7.20739 51.7489 7.20739C51.3039 7.20739 50.8872 7.31629 50.4989 7.53409C50.1107 7.75189 49.784 8.03835 49.5188 8.39347C49.2584 8.74384 49.0903 9.125 49.0146 9.53693L48.6808 11.3977C48.5861 11.9706 48.605 12.4465 48.7376 12.8253C48.8749 13.2041 49.1116 13.4882 49.4478 13.6776C49.784 13.8622 50.2101 13.9545 50.7262 13.9545C51.0624 13.9545 51.3772 13.9072 51.6708 13.8125C51.9691 13.7178 52.2343 13.5781 52.4663 13.3935C52.6983 13.2041 52.8877 12.9697 53.0344 12.6903L55.7972 12.875C55.5415 13.5473 55.1533 14.1345 54.6325 14.6364C54.1116 15.1335 53.4843 15.5218 52.7504 15.8011C52.0212 16.0758 51.2044 16.2131 50.3001 16.2131ZM57.3864 16L59.8011 1.45455H65.5398C66.6383 1.45455 67.5426 1.64867 68.2528 2.03693C68.9678 2.42519 69.4697 2.9768 69.7585 3.69176C70.0521 4.40199 70.1207 5.24006 69.9645 6.20597C69.8035 7.17187 69.4555 8.00047 68.9205 8.69176C68.3902 9.38305 67.6989 9.91572 66.8466 10.2898C65.9991 10.6591 65.0166 10.8438 63.8991 10.8438H60.0568L60.483 8.37216H63.821C64.4081 8.37216 64.91 8.29167 65.3267 8.13068C65.7434 7.9697 66.0724 7.72822 66.3139 7.40625C66.5601 7.08428 66.7211 6.68419 66.7969 6.20597C66.8774 5.71828 66.849 5.31108 66.7116 4.98438C66.5743 4.65294 66.3258 4.40199 65.9659 4.23153C65.6061 4.05634 65.1326 3.96875 64.5455 3.96875H62.4716L60.4616 16H57.3864ZM66.3352 9.38068L68.8565 16H65.4616L63.0185 9.38068H66.3352ZM70.5717 16L72.3899 5.09091H75.4155L73.5973 16H70.5717ZM74.2152 3.67045C73.7654 3.67045 73.3937 3.52131 73.1001 3.22301C72.8113 2.91998 72.6929 2.56013 72.745 2.14347C72.7971 1.71733 73.0007 1.35748 73.3558 1.06392C73.7109 0.765624 74.1134 0.616476 74.5632 0.616476C75.013 0.616476 75.38 0.765624 75.6641 1.06392C75.9482 1.35748 76.0665 1.71733 76.0192 2.14347C75.9718 2.56013 75.7706 2.91998 75.4155 3.22301C75.0651 3.52131 74.665 3.67045 74.2152 3.67045ZM80.2539 20.3182C79.2691 20.3182 78.4476 20.1832 77.7894 19.9134C77.136 19.6482 76.6388 19.286 76.2979 18.8267C75.9618 18.3674 75.7771 17.8513 75.744 17.2784L78.6133 16.902C78.6654 17.1245 78.7648 17.3305 78.9116 17.5199C79.0631 17.7093 79.2785 17.8608 79.5579 17.9744C79.842 18.0881 80.2089 18.1449 80.6587 18.1449C81.3169 18.1449 81.8898 17.9839 82.3775 17.6619C82.8652 17.3447 83.1658 16.812 83.2795 16.0639L83.6062 14.0682H83.4783C83.2984 14.3712 83.0522 14.6577 82.7397 14.9276C82.4319 15.1974 82.0555 15.4176 81.6104 15.5881C81.1701 15.7585 80.6611 15.8438 80.0835 15.8438C79.2596 15.8438 78.5446 15.6544 77.9386 15.2756C77.3372 14.892 76.9016 14.3073 76.6317 13.5213C76.3666 12.7306 76.3335 11.7315 76.5323 10.5241C76.7406 9.28835 77.1147 8.25616 77.6545 7.42756C78.1942 6.59896 78.8335 5.97869 79.5721 5.56676C80.3107 5.15483 81.0801 4.94886 81.8803 4.94886C82.4911 4.94886 82.9835 5.05303 83.3576 5.26136C83.7364 5.46496 84.0276 5.72064 84.2312 6.02841C84.4348 6.33144 84.5792 6.62973 84.6644 6.9233H84.7852L85.0835 5.09091H88.0877L86.2553 16.1065C86.1085 17.0393 85.7558 17.8158 85.1971 18.4361C84.6431 19.0611 83.94 19.5298 83.0877 19.8423C82.2354 20.1596 81.2908 20.3182 80.2539 20.3182ZM81.3903 13.571C81.8732 13.571 82.3065 13.4503 82.69 13.2088C83.0782 12.9626 83.4026 12.6122 83.663 12.1577C83.9234 11.6984 84.1057 11.1491 84.2099 10.5099C84.314 9.87074 84.3117 9.31676 84.2028 8.84801C84.0986 8.37453 83.895 8.00758 83.592 7.74716C83.2937 7.48674 82.9007 7.35653 82.413 7.35653C81.9111 7.35653 81.4708 7.49148 81.092 7.76136C80.7132 8.02651 80.3983 8.39583 80.1474 8.86932C79.9012 9.3428 79.7283 9.88968 79.6289 10.5099C79.5247 11.1397 79.52 11.6842 79.6147 12.1435C79.7141 12.598 79.9106 12.9508 80.2042 13.2017C80.4978 13.4479 80.8931 13.571 81.3903 13.571ZM99.0394 8.2017L96.2908 8.37216C96.2766 8.13068 96.2103 7.91525 96.092 7.72585C95.9783 7.53172 95.8103 7.37784 95.5877 7.2642C95.3699 7.15057 95.0953 7.09375 94.7638 7.09375C94.2667 7.09375 93.824 7.20739 93.4357 7.43466C93.0475 7.66193 92.8273 7.95312 92.7752 8.30824C92.7326 8.53551 92.7918 8.72727 92.9528 8.88352C93.1138 9.03977 93.4381 9.17235 93.9258 9.28125L95.8434 9.67898C96.8661 9.89678 97.6048 10.259 98.0593 10.7656C98.5186 11.2723 98.6819 11.9351 98.5494 12.7543C98.431 13.4503 98.1256 14.0587 97.6332 14.5795C97.1407 15.0956 96.5157 15.4981 95.7582 15.7869C95.0006 16.071 94.1602 16.2131 93.2369 16.2131C91.7549 16.2131 90.628 15.91 89.8562 15.304C89.0844 14.6979 88.7127 13.8764 88.7411 12.8395L91.6957 12.6832C91.7193 13.1283 91.8756 13.4645 92.1644 13.6918C92.4532 13.9143 92.8486 14.0279 93.3505 14.0327C93.9139 14.0421 94.3922 13.9261 94.7852 13.6847C95.1829 13.4384 95.4078 13.1402 95.4599 12.7898C95.4978 12.5436 95.4267 12.3447 95.2468 12.1932C95.0716 12.0417 94.7496 11.9162 94.2809 11.8168L92.4627 11.4403C91.4305 11.2273 90.6895 10.8461 90.2397 10.2969C89.7899 9.74763 89.636 9.04924 89.7781 8.2017C89.8917 7.52462 90.1734 6.9446 90.6232 6.46165C91.0778 5.97396 91.6625 5.59991 92.3775 5.33949C93.0972 5.07907 93.9092 4.94886 94.8136 4.94886C96.2293 4.94886 97.2946 5.24006 98.0096 5.82244C98.7293 6.40483 99.0726 7.19792 99.0394 8.2017ZM100.804 14.3736L101.021 13.0632H101.662C101.745 13.0632 101.818 13.0804 101.88 13.1147C101.944 13.149 101.992 13.1987 102.022 13.2638C102.054 13.3278 102.062 13.4059 102.045 13.4982C102.03 13.5906 101.996 13.6693 101.942 13.7344C101.889 13.7995 101.824 13.8492 101.747 13.8835C101.671 13.9167 101.59 13.9332 101.504 13.9332H101.065L101.104 13.6864H101.472C101.522 13.6864 101.567 13.6705 101.609 13.6385C101.651 13.6065 101.677 13.5592 101.687 13.4964C101.697 13.4313 101.687 13.3852 101.655 13.358C101.623 13.3295 101.583 13.3153 101.536 13.3153H101.319L101.145 14.3736H100.804ZM101.742 13.7681L101.939 14.3736H101.566L101.388 13.7681H101.742ZM101.417 15.1548C101.22 15.1548 101.036 15.1181 100.865 15.0447C100.693 14.9714 100.542 14.8696 100.412 14.7393C100.282 14.6091 100.18 14.4582 100.107 14.2866C100.033 14.1149 99.9964 13.9309 99.9964 13.7344C99.9964 13.5379 100.033 13.3538 100.107 13.1822C100.18 13.0105 100.282 12.8596 100.412 12.7294C100.542 12.5992 100.693 12.4974 100.865 12.424C101.036 12.3506 101.22 12.3139 101.417 12.3139C101.613 12.3139 101.797 12.3506 101.969 12.424C102.141 12.4974 102.292 12.5992 102.422 12.7294C102.552 12.8596 102.654 13.0105 102.727 13.1822C102.801 13.3538 102.837 13.5379 102.837 13.7344C102.837 13.9309 102.801 14.1149 102.727 14.2866C102.654 14.4582 102.552 14.6091 102.422 14.7393C102.293 14.8696 102.143 14.9714 101.971 15.0447C101.799 15.1181 101.615 15.1548 101.417 15.1548ZM101.417 14.7802C101.611 14.7802 101.787 14.7328 101.944 14.6381C102.103 14.5434 102.229 14.4174 102.322 14.2599C102.417 14.1025 102.464 13.9273 102.463 13.7344C102.463 13.5414 102.415 13.3662 102.321 13.2088C102.227 13.0502 102.101 12.9241 101.942 12.8306C101.785 12.7359 101.61 12.6886 101.417 12.6886C101.225 12.6886 101.05 12.7359 100.891 12.8306C100.734 12.9241 100.608 13.0502 100.513 13.2088C100.42 13.3662 100.373 13.5414 100.373 13.7344C100.373 13.9273 100.42 14.1031 100.513 14.2617C100.607 14.4192 100.733 14.5452 100.891 14.6399C101.05 14.7334 101.225 14.7802 101.417 14.7802Z" fill="white"/>
</svg>
