<svg width="290" height="235" xmlns="http://www.w3.org/2000/svg"  fill="none" version="1.1">
    <defs>
        <mask id="grid">
            <rect width="100%" height="100%" fill="white"/>
            <path fill="#000" id="svg_1" 
                d="M 298.902344 0 L 276.835938 0 L 268.449219 14.527344 L 267.816406 15.625 L 249.773438 15.625 L 249.144531 14.527344 L 240.753906 0 L 218.691406 0 L 209.667969 15.625 L 191.628906 15.625 L 182.605469 0 L 160.542969 0 L 151.519531 15.625 L 133.480469 15.625 L 124.457031 0 L 102.394531 0 L 94.003906 14.527344 L 93.371094 15.625 L 75.332031 15.625 L 74.699219 14.527344 L 66.308594 0 L 44.246094 0 L 35.226562 15.625 L 17.183594 15.625 L 8.164062 0 L -13.902344 0 L -22.921875 15.625 L -31.945312 15.625 L -31.945312 17.945312 L -22.921875 17.945312 L -13.902344 33.570312 L -22.921875 49.195312 L -31.945312 49.195312 L -31.945312 51.519531 L -22.921875 51.519531 L -13.902344 67.144531 L -22.921875 82.765625 L -31.945312 82.765625 L -31.945312 85.089844 L -22.921875 85.089844 L -13.902344 100.714844 L -22.921875 116.339844 L -31.945312 116.339844 L -31.945312 118.660156 L -22.921875 118.660156 L -13.902344 134.285156 L -22.921875 149.910156 L -31.945312 149.910156 L -31.945312 152.234375 L -22.921875 152.234375 L -13.902344 167.859375 L -22.921875 183.480469 L -31.945312 183.480469 L -31.945312 185.804688 L -22.921875 185.804688 L -13.902344 201.429688 L -22.921875 217.054688 L -31.945312 217.054688 L -31.945312 219.375 L -22.921875 219.375 L -13.902344 235 L 8.164062 235 L 17.183594 219.375 L 35.226562 219.375 L 44.246094 235 L 66.308594 235 L 74.464844 220.875 L 75.332031 219.375 L 93.371094 219.375 L 94.238281 220.875 L 102.394531 235 L 124.457031 235 L 133.480469 219.375 L 151.519531 219.375 L 160.542969 235 L 182.605469 235 L 191.628906 219.375 L 209.667969 219.375 L 218.691406 235 L 240.753906 235 L 248.910156 220.875 L 249.773438 219.375 L 267.816406 219.375 L 268.683594 220.875 L 276.835938 235 L 298.902344 235 L 307.921875 219.375 L 316.941406 219.375 L 316.941406 217.054688 L 307.921875 217.054688 L 298.902344 201.429688 L 307.921875 185.804688 L 316.941406 185.804688 L 316.941406 183.480469 L 307.921875 183.480469 L 298.902344 167.855469 L 307.921875 152.234375 L 316.941406 152.234375 L 316.941406 149.910156 L 307.921875 149.910156 L 298.902344 134.285156 L 307.921875 118.660156 L 316.941406 118.660156 L 316.941406 116.339844 L 307.921875 116.339844 L 298.902344 100.714844 L 307.921875 85.089844 L 316.941406 85.089844 L 316.941406 82.765625 L 307.921875 82.765625 L 298.902344 67.140625 L 307.921875 51.519531 L 316.941406 51.519531 L 316.941406 49.195312 L 307.921875 49.195312 L 298.902344 33.570312 L 307.921875 17.945312 L 316.941406 17.945312 L 316.941406 15.625 L 307.921875 15.625 Z M 249.773438 17.945312 L 267.816406 17.945312 L 268.683594 19.449219 L 276.835938 33.570312 L 268.683594 47.695312 L 267.816406 49.195312 L 249.773438 49.195312 L 248.910156 47.695312 L 240.753906 33.570312 L 248.910156 19.449219 Z M 182.605469 100.714844 L 191.628906 85.089844 L 209.667969 85.089844 L 218.691406 100.714844 L 209.667969 116.339844 L 191.628906 116.339844 Z M 189.617188 117.5 L 180.59375 133.125 L 162.554688 133.125 L 153.53125 117.5 L 162.554688 101.875 L 180.59375 101.875 Z M 180.59375 99.554688 L 162.554688 99.554688 L 153.53125 83.929688 L 162.554688 68.304688 L 180.59375 68.304688 L 189.613281 83.929688 Z M 160.542969 100.714844 L 151.519531 116.339844 L 133.480469 116.339844 L 124.460938 100.714844 L 133.480469 85.089844 L 151.519531 85.089844 Z M 131.46875 117.5 L 122.445312 133.125 L 104.40625 133.125 L 95.382812 117.5 L 104.40625 101.875 L 122.445312 101.875 Z M 122.445312 99.554688 L 104.40625 99.554688 L 95.382812 83.929688 L 104.40625 68.304688 L 122.445312 68.304688 L 131.46875 83.929688 Z M 102.394531 100.714844 L 94.238281 114.839844 L 93.371094 116.339844 L 75.332031 116.339844 L 74.464844 114.839844 L 66.308594 100.714844 L 74.464844 86.589844 L 75.332031 85.089844 L 93.371094 85.089844 L 94.238281 86.589844 Z M 64.300781 99.554688 L 46.257812 99.554688 L 45.390625 98.050781 L 37.238281 83.929688 L 45.390625 69.804688 L 46.257812 68.304688 L 64.300781 68.304688 L 73.320312 83.929688 Z M 46.257812 101.875 L 64.300781 101.875 L 73.320312 117.5 L 64.300781 133.125 L 46.257812 133.125 L 45.625 132.03125 L 37.238281 117.5 L 45.390625 103.375 Z M 46.257812 135.445312 L 64.300781 135.445312 L 73.320312 151.070312 L 64.300781 166.695312 L 46.257812 166.695312 L 45.390625 165.195312 L 37.238281 151.070312 L 45.390625 136.949219 Z M 66.308594 134.285156 L 74.699219 119.757812 L 75.332031 118.660156 L 93.371094 118.660156 L 94.003906 119.757812 L 102.394531 134.285156 L 94.238281 148.410156 L 93.371094 149.910156 L 75.332031 149.910156 L 74.464844 148.410156 Z M 104.40625 135.445312 L 122.445312 135.445312 L 131.46875 151.070312 L 122.445312 166.695312 L 104.40625 166.695312 L 95.382812 151.070312 Z M 124.457031 134.285156 L 133.480469 118.660156 L 151.519531 118.660156 L 160.539062 134.285156 L 151.519531 149.910156 L 133.480469 149.910156 Z M 162.554688 135.445312 L 180.59375 135.445312 L 189.613281 151.070312 L 180.59375 166.695312 L 162.554688 166.695312 L 153.53125 151.070312 Z M 182.605469 134.285156 L 191.628906 118.660156 L 209.667969 118.660156 L 218.691406 134.285156 L 209.667969 149.910156 L 191.628906 149.910156 Z M 219.835938 136.949219 L 220.699219 135.445312 L 238.742188 135.445312 L 247.761719 151.070312 L 238.742188 166.695312 L 220.699219 166.695312 L 219.835938 165.195312 L 211.679688 151.070312 Z M 220.699219 133.125 L 220.070312 132.03125 L 211.679688 117.5 L 219.835938 103.375 L 220.699219 101.875 L 238.742188 101.875 L 247.761719 117.5 L 238.742188 133.125 Z M 220.699219 99.554688 L 219.835938 98.050781 L 211.679688 83.929688 L 219.835938 69.804688 L 220.699219 68.304688 L 238.742188 68.304688 L 247.761719 83.929688 L 238.742188 99.554688 Z M 220.699219 65.980469 L 220.070312 64.886719 L 211.679688 50.359375 L 219.835938 36.234375 L 220.703125 34.734375 L 238.742188 34.734375 L 247.765625 50.359375 L 238.742188 65.980469 Z M 218.691406 67.144531 L 209.667969 82.765625 L 191.628906 82.765625 L 182.605469 67.144531 L 191.628906 51.519531 L 209.667969 51.519531 Z M 180.59375 65.980469 L 162.554688 65.980469 L 153.53125 50.355469 L 162.554688 34.734375 L 180.59375 34.734375 L 189.613281 50.355469 Z M 160.542969 67.144531 L 151.519531 82.765625 L 133.480469 82.765625 L 124.460938 67.144531 L 133.480469 51.519531 L 151.519531 51.519531 Z M 122.445312 65.980469 L 104.40625 65.980469 L 95.382812 50.355469 L 104.40625 34.734375 L 122.445312 34.734375 L 131.46875 50.355469 Z M 102.394531 67.144531 L 94.238281 81.265625 L 93.371094 82.765625 L 75.332031 82.765625 L 74.464844 81.265625 L 66.308594 67.144531 L 74.699219 52.613281 L 75.332031 51.519531 L 93.371094 51.519531 L 94.003906 52.613281 Z M 64.300781 65.980469 L 46.257812 65.980469 L 45.625 64.886719 L 37.238281 50.359375 L 45.390625 36.234375 L 46.257812 34.734375 L 64.300781 34.734375 L 73.320312 50.359375 Z M 44.246094 67.144531 L 35.226562 82.765625 L 17.183594 82.765625 L 8.164062 67.144531 L 17.183594 51.519531 L 35.226562 51.519531 Z M 35.226562 85.089844 L 44.246094 100.714844 L 35.226562 116.339844 L 17.183594 116.339844 L 8.164062 100.714844 L 17.183594 85.089844 Z M 35.226562 118.660156 L 44.246094 134.285156 L 35.226562 149.910156 L 17.183594 149.910156 L 8.164062 134.285156 L 17.183594 118.660156 Z M 35.226562 152.234375 L 44.246094 167.855469 L 35.226562 183.480469 L 17.183594 183.480469 L 8.164062 167.859375 L 17.183594 152.234375 Z M 45.390625 170.519531 L 46.257812 169.019531 L 64.300781 169.019531 L 73.320312 184.644531 L 64.300781 200.265625 L 46.257812 200.265625 L 45.625 199.171875 L 37.238281 184.644531 Z M 66.308594 167.855469 L 74.464844 153.734375 L 75.332031 152.234375 L 93.371094 152.234375 L 94.238281 153.734375 L 102.394531 167.855469 L 94.238281 181.980469 L 93.371094 183.480469 L 75.332031 183.480469 L 74.464844 181.980469 Z M 104.40625 169.019531 L 122.445312 169.019531 L 131.46875 184.644531 L 122.445312 200.265625 L 104.40625 200.265625 L 95.382812 184.644531 Z M 124.457031 167.855469 L 133.480469 152.234375 L 151.519531 152.234375 L 160.539062 167.855469 L 151.519531 183.480469 L 133.480469 183.480469 Z M 162.554688 169.019531 L 180.59375 169.019531 L 189.613281 184.644531 L 180.59375 200.265625 L 162.554688 200.265625 L 153.53125 184.644531 Z M 182.605469 167.855469 L 191.628906 152.234375 L 209.667969 152.234375 L 218.691406 167.855469 L 209.667969 183.480469 L 191.628906 183.480469 Z M 219.835938 170.519531 L 220.699219 169.019531 L 238.742188 169.019531 L 247.761719 184.644531 L 238.742188 200.265625 L 220.699219 200.265625 L 220.070312 199.171875 L 211.679688 184.644531 Z M 240.753906 167.855469 L 248.910156 153.734375 L 249.773438 152.234375 L 267.816406 152.234375 L 268.683594 153.734375 L 276.835938 167.855469 L 268.683594 181.980469 L 267.816406 183.480469 L 249.773438 183.480469 L 248.910156 181.980469 Z M 267.816406 149.910156 L 249.773438 149.910156 L 248.910156 148.410156 L 240.753906 134.285156 L 249.140625 119.757812 L 249.773438 118.660156 L 267.816406 118.660156 L 268.449219 119.757812 L 276.835938 134.285156 L 268.683594 148.410156 Z M 267.816406 116.339844 L 249.773438 116.339844 L 248.910156 114.839844 L 240.753906 100.714844 L 248.910156 86.589844 L 249.773438 85.089844 L 267.816406 85.089844 L 268.683594 86.589844 L 276.835938 100.714844 L 268.683594 114.839844 Z M 267.816406 82.765625 L 249.773438 82.765625 L 248.910156 81.265625 L 240.753906 67.144531 L 249.140625 52.613281 L 249.773438 51.519531 L 267.816406 51.519531 L 268.449219 52.613281 L 276.835938 67.144531 L 268.683594 81.265625 Z M 220.070312 2.257812 L 220.699219 1.160156 L 238.742188 1.160156 L 247.761719 16.785156 L 238.742188 32.410156 L 220.699219 32.410156 L 219.835938 30.910156 L 211.679688 16.785156 Z M 209.667969 17.945312 L 218.691406 33.570312 L 209.667969 49.195312 L 191.628906 49.195312 L 182.605469 33.570312 L 191.628906 17.945312 Z M 162.554688 1.160156 L 180.59375 1.160156 L 189.613281 16.785156 L 180.59375 32.410156 L 162.554688 32.410156 L 153.53125 16.785156 Z M 151.519531 17.945312 L 160.542969 33.570312 L 151.519531 49.195312 L 133.480469 49.195312 L 124.460938 33.570312 L 133.480469 17.945312 Z M 104.40625 1.160156 L 122.445312 1.160156 L 131.46875 16.785156 L 122.445312 32.410156 L 104.40625 32.410156 L 95.382812 16.785156 Z M 75.332031 17.945312 L 93.371094 17.945312 L 94.238281 19.449219 L 102.394531 33.570312 L 94.238281 47.695312 L 93.371094 49.195312 L 75.332031 49.195312 L 74.464844 47.695312 L 66.308594 33.570312 L 74.464844 19.449219 Z M 45.625 2.257812 L 46.257812 1.160156 L 64.300781 1.160156 L 73.320312 16.785156 L 64.300781 32.410156 L 46.257812 32.410156 L 45.390625 30.910156 L 37.238281 16.785156 Z M 35.226562 17.945312 L 44.246094 33.570312 L 35.226562 49.195312 L 17.183594 49.195312 L 8.164062 33.570312 L 17.183594 17.945312 Z M -20.910156 16.785156 L -11.890625 1.160156 L 6.152344 1.160156 L 15.171875 16.785156 L 6.152344 32.410156 L -11.890625 32.410156 Z M -20.910156 50.355469 L -11.890625 34.734375 L 6.152344 34.734375 L 15.171875 50.355469 L 6.152344 65.980469 L -11.890625 65.980469 Z M -20.910156 83.929688 L -11.890625 68.304688 L 6.152344 68.304688 L 15.171875 83.929688 L 6.152344 99.554688 L -11.890625 99.554688 Z M -20.910156 117.5 L -11.890625 101.875 L 6.152344 101.875 L 15.171875 117.5 L 6.152344 133.125 L -11.890625 133.125 Z M -20.910156 151.070312 L -11.890625 135.445312 L 6.152344 135.445312 L 15.171875 151.070312 L 6.152344 166.695312 L -11.890625 166.695312 Z M -20.910156 184.644531 L -11.890625 169.019531 L 6.152344 169.019531 L 15.171875 184.644531 L 6.152344 200.265625 L -11.890625 200.265625 Z M 6.152344 233.839844 L -11.890625 233.839844 L -20.910156 218.214844 L -11.890625 202.589844 L 6.152344 202.589844 L 15.171875 218.214844 Z M 17.183594 217.054688 L 8.164062 201.429688 L 17.183594 185.804688 L 35.226562 185.804688 L 44.246094 201.429688 L 35.226562 217.054688 Z M 64.300781 233.839844 L 46.257812 233.839844 L 45.390625 232.339844 L 37.238281 218.214844 L 45.390625 204.089844 L 46.257812 202.589844 L 64.300781 202.589844 L 73.320312 218.214844 Z M 93.371094 217.054688 L 75.332031 217.054688 L 74.464844 215.550781 L 66.308594 201.429688 L 74.699219 186.898438 L 75.332031 185.804688 L 93.371094 185.804688 L 94.003906 186.898438 L 102.394531 201.429688 L 94.238281 215.550781 Z M 122.445312 233.839844 L 104.40625 233.839844 L 95.382812 218.214844 L 104.40625 202.589844 L 122.445312 202.589844 L 131.46875 218.214844 Z M 133.480469 217.054688 L 124.460938 201.429688 L 133.480469 185.804688 L 151.519531 185.804688 L 160.542969 201.429688 L 151.519531 217.054688 Z M 180.59375 233.839844 L 162.554688 233.839844 L 153.53125 218.214844 L 162.554688 202.589844 L 180.59375 202.589844 L 189.613281 218.214844 Z M 191.628906 217.054688 L 182.605469 201.429688 L 191.628906 185.804688 L 209.667969 185.804688 L 218.691406 201.429688 L 209.667969 217.054688 Z M 238.742188 233.839844 L 220.699219 233.839844 L 219.835938 232.339844 L 211.679688 218.214844 L 219.835938 204.089844 L 220.699219 202.589844 L 238.742188 202.589844 L 247.761719 218.214844 Z M 267.816406 217.054688 L 249.773438 217.054688 L 248.910156 215.550781 L 240.753906 201.429688 L 249.140625 186.898438 L 249.773438 185.804688 L 267.816406 185.804688 L 268.449219 186.898438 L 276.835938 201.429688 L 268.683594 215.550781 Z M 305.910156 218.214844 L 296.890625 233.839844 L 278.847656 233.839844 L 269.828125 218.214844 L 278.847656 202.589844 L 296.890625 202.589844 Z M 305.910156 184.644531 L 296.890625 200.265625 L 278.847656 200.265625 L 269.828125 184.644531 L 278.847656 169.019531 L 296.890625 169.019531 Z M 305.910156 151.070312 L 296.890625 166.695312 L 278.847656 166.695312 L 269.828125 151.070312 L 278.847656 135.445312 L 296.890625 135.445312 Z M 305.910156 117.5 L 296.890625 133.125 L 278.847656 133.125 L 269.828125 117.5 L 278.847656 101.875 L 296.890625 101.875 Z M 305.910156 83.929688 L 296.890625 99.554688 L 278.847656 99.554688 L 269.828125 83.929688 L 278.847656 68.304688 L 296.890625 68.304688 Z M 305.910156 50.355469 L 296.890625 65.980469 L 278.847656 65.980469 L 269.828125 50.355469 L 278.847656 34.734375 L 296.890625 34.734375 Z M 296.890625 32.410156 L 278.847656 32.410156 L 269.828125 16.785156 L 278.847656 1.160156 L 296.890625 1.160156 L 305.910156 16.785156 Z M 296.890625 32.410156 "/>
            />    
        </mask>
    </defs>
  <rect width="100%" height="100%" mask="url(#grid)" stroke="none" fill="#0c0b0d"/>
</svg>